inDegrees=no
num_controls=7
num_derivatives=13
num_iterations=62
num_multipliers=7
num_parameters=0
num_slacks=7
num_states=26
objective=0.440864
objective_accelerations=0.024142
objective_balance=0.000880
objective_effort=0.007585
objective_height=0.401534
objective_ligament=0.006723
solver_duration=942.121027
status=Solve_Succeeded
success=true
DataType=double
version=3
OpenSimVersion=4.5
endheader
time	/jointset/ground_pelvis/pelvis_tilt/value	/jointset/ground_pelvis/pelvis_tx/value	/jointset/ground_pelvis/pelvis_ty/value	/jointset/hip_l/hip_flexion_l/value	/jointset/hip_l/hip_adduction_l/value	/jointset/hip_l/hip_rotation_l/value	/jointset/back/lumbar_extension/value	/jointset/patellofemoral_l/patellar_flexion_l/value	/jointset/knee_l/knee_flexion_l/value	/jointset/knee_l/knee_adduction_l/value	/jointset/knee_l/knee_rotation_l/value	/jointset/ankle_l/ankle_angle_l/value	/jointset/subtalar_l/subtalar_angle_l/value	/jointset/ground_pelvis/pelvis_tilt/speed	/jointset/ground_pelvis/pelvis_tx/speed	/jointset/ground_pelvis/pelvis_ty/speed	/jointset/hip_l/hip_flexion_l/speed	/jointset/hip_l/hip_adduction_l/speed	/jointset/hip_l/hip_rotation_l/speed	/jointset/back/lumbar_extension/speed	/jointset/patellofemoral_l/patellar_flexion_l/speed	/jointset/knee_l/knee_flexion_l/speed	/jointset/knee_l/knee_adduction_l/speed	/jointset/knee_l/knee_rotation_l/speed	/jointset/ankle_l/ankle_angle_l/speed	/jointset/subtalar_l/subtalar_angle_l/speed	/forceset/tau_hip_flexion_l	/forceset/tau_hip_adduction_l	/forceset/tau_hip_rotation_l	/forceset/tau_knee_flexion_l	/forceset/tau_ankle_angle_l	/forceset/tau_subtalar_angle_l	/forceset/tau_lumbar_extension	lambda_cid13_p0	lambda_cid13_p1	lambda_cid13_p2	lambda_cid13_p3	lambda_cid13_p4	lambda_cid13_p5	lambda_cid14_p0	/jointset/ground_pelvis/pelvis_tilt/accel	/jointset/ground_pelvis/pelvis_tx/accel	/jointset/ground_pelvis/pelvis_ty/accel	/jointset/hip_l/hip_flexion_l/accel	/jointset/hip_l/hip_adduction_l/accel	/jointset/hip_l/hip_rotation_l/accel	/jointset/back/lumbar_extension/accel	/jointset/patellofemoral_l/patellar_flexion_l/accel	/jointset/knee_l/knee_flexion_l/accel	/jointset/knee_l/knee_adduction_l/accel	/jointset/knee_l/knee_rotation_l/accel	/jointset/ankle_l/ankle_angle_l/accel	/jointset/subtalar_l/subtalar_angle_l/accel	gamma_cid13_p0	gamma_cid13_p1	gamma_cid13_p2	gamma_cid13_p3	gamma_cid13_p4	gamma_cid13_p5	gamma_cid14_p0
1	-0.06643119135591063	0.1015432615663458	0.7927307449354777	0.7171682575782393	-0.3762282340994784	-0.01900191513837427	-0.4344808696387512	0.9571243925827515	0.9571243925835153	-0.03766764044051742	-0.1744691587367906	0.4353239046966092	0.2039359306075819	-0.1175996949133725	0.01695892794405775	0.02166035830335084	0.01754317662163986	0.01074699247782312	-0.06160255730994703	0.05100336648527462	-0.1414419633138306	-0.1414419633138242	0.01545562628489685	0.0002147465621263737	-0.05077080442915156	-0.009239638447126761	-0.06327517035955718	0.06035408864018546	-0.0008347381216537473	-0.2336804853173324	-0.06390233170327475	0.01468047281268761	0.1030833011283656	-48.01204927755251	3.463906800359025	-2.470167049248505	4.818448452852707	-492.213316931594	-65.28235149385353	-4.970761666881361	0.2876477950687577	0.1366750789098388	0.7224424705667122	-2.579311831488778	0.1100494426318764	-0.997378199046811	0.8086593203681444	-3.317737311871082	-3.317737311871087	-0.2474729638415898	-0.007770162630755487	-1.286608409429642	-0.5096060688376854	1.492865837725411e-09	-3.08887317944051e-08	-2.403809106294145e-08	3.096817603986606e-09	-5.803311333788937e-09	-2.057093428826153e-08	4.518842315962012e-09
1.01	-0.06759362868542312	0.1017197067331608	0.7929833140770179	0.7172157831466294	-0.3761152935440983	-0.01966709920478965	-0.4339291243150533	0.9555443179264245	0.9555443179273679	-0.03752600453100798	-0.174467098491358	0.4347518717123468	0.2038180136312817	-0.1149154551292958	0.01833469264182302	0.0288488645181984	-0.008017848218628849	0.01184241921846594	-0.07143559077804749	0.05941432101521694	-0.1745853159548185	-0.1745853159548134	0.01286725667642865	0.0001957502875143202	-0.06364096025708334	-0.01434130427497913	-0.06378837217104942	0.0603172355959376	-0.0008433144958470246	-0.2326566894200425	-0.06462300308763204	0.01476840423753129	0.1033915094952447	-48.22004544228158	3.395151190668479	-2.382691776097301	4.851725300254847	-492.1941024446757	-65.32219933188721	-5.020732608570695	0.2546610177977498	0.1387157927253131	0.7163624851571906	-2.541464178049163	0.1094914624461496	-0.9764647246684234	0.8676069331941667	-3.314487455749271	-3.314487455749447	-0.2651685815424227	0.0007955046074124201	-1.287995648142831	-0.5100695893774012	1.694155717833234e-09	-3.717618493315818e-08	-2.928058233524268e-08	2.724505915933401e-09	-6.932694312962513e-09	-2.315233382872545e-08	5.069482576300287e-09
1.02	-0.068730053827552	0.1019100472724566	0.7933076298383486	0.7170083051930715	-0.375991358286777	-0.02043065336668315	-0.4332912107632737	0.9536324391005842	0.9536324391016986	-0.0374103822420189	-0.1744652762357791	0.434050981874068	0.2036491554467794	-0.1123972574363854	0.01973800244020765	0.0360096822615002	-0.03345752776902651	0.01294593286573697	-0.08127657640522068	0.0682370121006297	-0.2078027972172729	-0.2078027972172695	0.01025290218024131	0.0001671485922552355	-0.0765421752317318	-0.0194278800875681	-0.06430157398248559	0.06028038255168815	-0.0008518908700237164	-0.2316328935227497	-0.06534367447199538	0.01485633566236872	0.1036997178621775	-48.43324721660504	3.323919520702973	-2.290952519059376	4.879686236391382	-492.2900050700361	-65.38588189124378	-5.081857978216521	0.2544393768355072	0.1421840990336864	0.716904776257559	-2.555042773514558	0.1116668239575224	-0.9989686308613492	0.8910066314621699	-3.332563036164358	-3.332563036164448	-0.2526699413854078	-0.009691246760160128	-1.292820238773007	-0.5065880657850133	2.02024709966769e-09	-4.392812420943238e-08	-3.523208642127465e-08	2.110078648343385e-09	-8.132499392645572e-09	-2.602940524176439e-08	5.706788953407433e-09
1.03	-0.06984209949906009	0.1021145545377703	0.7937033807390129	0.7165470704131118	-0.3758563518714751	-0.0212926217082476	-0.4325630852271702	0.9513880882463436	0.9513880882471258	-0.0373210474818431	-0.1744637842162926	0.4332209432726454	0.203429526588612	-0.1100386464799387	0.02116763881851632	0.04313222811973352	-0.05876359898106141	0.01405678282575852	-0.0911170392182008	0.07745165451151512	-0.241072026471885	-0.2410720264718655	0.007610980417714091	0.0001295159554757489	-0.08946873153421554	-0.0244924723987534	-0.0647183352406227	0.06019492014120882	-0.0008485765901949349	-0.2304761347624168	-0.06599451326773302	0.01492331047826296	0.1039126008508096	-48.6132428118114	3.25418035833866	-2.197400996224717	4.907018333444207	-492.1684555004719	-65.41697698818226	-5.154363513641692	0.2225583075924527	0.1439819314522283	0.7086871539866099	-2.514513277624471	0.1110190506883257	-0.9765752081684052	0.9462269544191771	-3.324802069162259	-3.324802069159751	-0.2704204053956613	-0.001070344252420487	-1.293053104346664	-0.5055689830772954	2.347611966213643e-09	-5.068480314017108e-08	-4.119082533193653e-08	1.493180813615237e-09	-9.333023065190973e-09	-2.890949371472758e-08	6.344979678644875e-09
